<?xml version="1.0" standalone="no"?>
<!DOCTYPE svg PUBLIC "-//W3C//DTD SVG 20010904//EN"
 "http://www.w3.org/TR/2001/REC-SVG-20010904/DTD/svg10.dtd">
<svg version="1.0" xmlns="http://www.w3.org/2000/svg"
 width="40.000000pt" height="40.000000pt" viewBox="0 0 40.000000 40.000000"
 preserveAspectRatio="xMidYMid meet">
<metadata>
Created by potrace 1.14, written by Peter Selinger 2001-2017
</metadata>
<g transform="translate(0.000000,40.000000) scale(0.100000,-0.100000)"
fill="#000000" stroke="none">
<path d="M22 377 c-22 -23 -30 -57 -13 -57 5 0 11 10 14 21 5 17 11 20 29 15
13 -3 40 -6 60 -6 l38 0 -20 -32 c-11 -18 -20 -45 -20 -60 0 -21 -5 -28 -19
-28 -25 0 -51 -10 -51 -20 0 -4 12 -5 27 -2 18 3 30 -1 40 -13 19 -27 16 -36
-11 -29 -13 3 -27 1 -30 -5 -4 -6 0 -11 8 -11 21 0 45 -37 39 -61 -5 -19 -51
-63 -75 -72 -7 -2 -10 -7 -7 -10 3 -4 29 2 57 13 66 25 144 25 200 0 l42 -19
35 31 c20 17 33 33 31 36 -3 3 -12 0 -19 -7 -11 -8 -23 -8 -50 4 -20 8 -62 15
-94 15 l-58 0 33 26 c54 42 66 76 58 165 -7 83 4 109 45 109 10 0 19 5 19 10
0 30 -105 -9 -117 -43 -4 -12 -8 -62 -8 -112 0 -93 -12 -125 -57 -154 -14 -9
-13 -3 5 27 19 32 22 49 19 135 -2 93 -1 99 23 123 32 32 32 35 -5 23 -21 -8
-39 -8 -61 0 -49 17 -83 13 -107 -12z"/>
</g>
</svg>
